# Blender v3.5.1 OBJ File: ''
# www.blender.org
mtllib arrow.mtl
o Cube
v 1.000000 5.246008 -1.000000
v 1.000000 1.727244 -1.000000
v 1.000000 5.246008 1.000000
v 1.000000 1.727244 1.000000
v 0.306464 5.246008 -1.000000
v 0.306464 1.727244 -1.000000
v 0.306464 5.246008 1.000000
v 0.306464 1.727244 1.000000
v 1.000000 1.678251 -1.532286
v 1.000000 1.678251 1.532286
v 0.306464 1.678251 -1.532286
v 0.306464 1.678251 1.532286
v 1.000000 -0.608061 0.000000
v 0.306464 -0.608061 0.000000
vt 0.625000 0.500000
vt 0.875000 0.500000
vt 0.875000 0.750000
vt 0.625000 0.750000
vt 0.375000 0.750000
vt 0.625000 1.000000
vt 0.375000 1.000000
vt 0.375000 0.000000
vt 0.625000 0.000000
vt 0.625000 0.250000
vt 0.375000 0.250000
vt 0.375000 0.500000
vt 0.375000 0.500000
vt 0.375000 0.250000
vt 0.375000 0.750000
vt 0.375000 1.000000
vt 0.375000 1.000000
vt 0.375000 0.750000
vt 0.375000 0.000000
vt 0.375000 0.000000
vt 0.375000 0.500000
vt 0.375000 0.250000
vn 0.0000 1.0000 0.0000
vn 0.0000 0.0000 1.0000
vn -1.0000 0.0000 0.0000
vn 0.0000 0.9958 -0.0917
vn 1.0000 0.0000 0.0000
vn 0.0000 0.0000 -1.0000
vn 0.0000 -0.5567 0.8307
vn 0.0000 0.9958 0.0917
vn 0.0000 -0.5567 -0.8307
usemtl Material
s off
f 1/1/1 5/2/1 7/3/1 3/4/1
f 4/5/2 3/4/2 7/6/2 8/7/2
f 8/8/3 7/9/3 5/10/3 6/11/3
f 6/11/4 2/12/4 9/13/4 11/14/4
f 2/12/5 1/1/5 3/4/5 4/5/5
f 6/11/6 5/10/6 1/1/6 2/12/6
f 10/15/7 12/16/7 14/17/7 13/18/7
f 4/5/8 8/7/8 12/16/8 10/15/8
f 8/8/3 6/11/3 11/14/3 12/19/3
f 2/12/5 4/5/5 10/15/5 9/13/5
f 12/19/3 11/14/3 14/20/3
f 9/13/5 10/15/5 13/21/5
f 11/14/9 9/13/9 13/21/9 14/22/9
